<svg viewBox="0 0 28 28" width="28" height="28" xmlns="http://www.w3.org/2000/svg">
    <path fill="#56A0D3" d="m26.642 27.817-7.061-6.994c-.761-.761-1.305-1.74-1.305-1.74-.98-2.104.036-4.135.036-4.135.652-1.414 1.85-2.72 1.85-2.72 1.503-1.857 1.306-3.19 1.306-3.19-.06-1.028-.706-1.527-.952-1.681-.432-.22-1.017-.33-1.755-.33-.985 0-1.698.196-2.14.587-.44.39-.66.924-.658 1.6l-.076 6.59v4.676a5.63 5.63 0 0 1-.33 1.902 4.466 4.466 0 0 1-1.072 1.672c-.494.493-1.149.888-1.965 1.186-.817.297-1.83.446-3.037.446-1.192 0-2.2-.149-3.026-.447-.825-.297-1.483-.692-1.975-1.185a4.466 4.466 0 0 1-1.079-1.671 5.629 5.629 0 0 1-.33-1.903V0H2.24A2.239 2.239 0 0 0 0 2.24v23.52A2.239 2.239 0 0 0 2.239 28h23.52c.305 0 .606-.062.886-.183h-.003Z"></path>
    <path fill="#fff" d="M3.403 22.383a4.465 4.465 0 0 0 1.075 1.672c.494.493 1.152.888 1.976 1.185.823.297 1.831.446 3.025.447 1.208 0 2.22-.15 3.037-.447.816-.297 1.472-.693 1.966-1.185a4.464 4.464 0 0 0 1.072-1.672 5.63 5.63 0 0 0 .329-1.903v-4.676l.074-6.588c0-.677.22-1.21.658-1.6.44-.391 1.152-.587 2.14-.587.737 0 1.322.11 1.755.33.245.153.892.652.951 1.68 0 0 .198 1.333-1.306 3.19 0 0-1.196 1.307-1.849 2.72 0 0-1.015 2.031-.036 4.135 0 0 .544.979 1.305 1.74l7.067 6.993a2.238 2.238 0 0 0 1.355-2.058v-1.956l-5.771-5.772s-1.197-1.088-.037-2.647c0 0 1.669-2.321 2.03-2.901 0 0 1.166-1.453 1.205-3.575h.007c0-.08-.006-.162-.009-.243 0-.065 0-.135-.007-.205 0-.047-.008-.094-.012-.141-.007-.086-.011-.171-.022-.26a3.063 3.063 0 0 0-.101-.521 4.4 4.4 0 0 0-1.333-2.31c-.527-.503-1.216-.906-2.067-1.211-.851-.305-1.891-.456-3.12-.455-1.213 0-2.248.152-3.106.455-.858.303-1.551.707-2.08 1.212a4.623 4.623 0 0 0-1.156 1.706 5.374 5.374 0 0 0-.367 1.94v11.248c0 .697-.187 1.234-.562 1.609-.374.375-1.046.561-2.014.56-.97 0-1.641-.187-2.015-.56-.374-.374-.561-.91-.561-1.61V0h-3.83v20.48c0 .649.114 1.293.334 1.903Z"></path><path fill="#56A0D3" d="M25.76 0H6.901v20.12c0 .697.187 1.233.561 1.608.374.375 1.046.562 2.015.56.97 0 1.641-.186 2.015-.56.373-.373.56-.91.562-1.608V8.876c0-.664.124-1.322.364-1.941a4.624 4.624 0 0 1 1.155-1.706c.527-.504 1.22-.907 2.08-1.212.859-.305 1.895-.456 3.106-.455 1.23 0 2.27.152 3.12.455.85.303 1.539.707 2.067 1.212a4.4 4.4 0 0 1 1.335 2.308c.049.171.082.345.1.522.012.088.016.173.023.26.004.047.01.094.012.14.004.07.006.138.007.206 0 .08.009.162.009.243h-.007c-.04 2.121-1.204 3.574-1.204 3.574-.362.58-2.03 2.9-2.03 2.9-1.16 1.56.036 2.648.036 2.648L28 23.802V2.239A2.239 2.239 0 0 0 25.76 0Z"></path>
</svg>