<svg width="205" height="54" viewBox="0 0 205 54" xmlns="http://www.w3.org/2000/svg">
    <path fill="#002B39" d="M35.067 19.69v9.974a4.724 4.724 0 0 1-.274 1.573c-.187.524-.49.998-.887 1.388a4.45 4.45 0 0 1-1.623.983c-.81.267-1.66.391-2.512.368a7.402 7.402 0 0 1-2.497-.369 4.462 4.462 0 0 1-1.637-.982c-.397-.39-.7-.863-.888-1.387a4.724 4.724 0 0 1-.274-1.574v-9.975h3.167v9.679a1.791 1.791 0 0 0 .462 1.328 2.334 2.334 0 0 0 1.667.463 2.341 2.341 0 0 0 1.667-.463 1.79 1.79 0 0 0 .433-1.328v-9.679h3.196Zm5.542 4.816v9.254h-3.017V19.688h3.883L46.1 29.39v-9.7h3.016v14.067h-3.904l-4.603-9.252v.001Zm11.069 9.252V19.69h3.16v14.069h-3.16Zm13.637 0h-4.517L56.829 19.69h3.255l2.973 11.195 2.972-11.195h3.247l-3.96 14.069Zm5.628 0V19.69h8.84v2.824h-5.672v2.572h5.231V27.9h-5.23v3.048h5.67v2.817l-8.84-.008Zm47.514 0V19.69h3.168v11.253h5.571v2.816h-8.739Zm39.721-4.094a4.384 4.384 0 0 1-.288 1.573 3.887 3.887 0 0 1-.938 1.388 4.854 4.854 0 0 1-1.695.983 8.832 8.832 0 0 1-5.051 0 4.88 4.88 0 0 1-1.667-.983 3.914 3.914 0 0 1-.938-1.387 4.407 4.407 0 0 1-.281-1.574v-5.88a4.409 4.409 0 0 1 .296-1.574c.207-.524.527-.995.938-1.38a4.664 4.664 0 0 1 1.652-.982 8.65 8.65 0 0 1 5.051 0 4.65 4.65 0 0 1 1.681.982c.411.385.73.856.938 1.38.191.503.289 1.037.289 1.575l.013 5.879Zm-3.16-5.598a1.635 1.635 0 0 0-.541-1.3 3.38 3.38 0 0 0-3.463 0 1.633 1.633 0 0 0-.541 1.3v5.323a1.622 1.622 0 0 0 .541 1.3 3.429 3.429 0 0 0 3.463 0 1.639 1.639 0 0 0 .541-1.3v-5.323Zm15.146 6.334a3.183 3.183 0 0 1-.981 2.427 4.366 4.366 0 0 1-3.104.931h-5.995V19.69h5.548c1.444 0 2.497.275 3.103.823a2.883 2.883 0 0 1 .952 2.262v1.443a2.32 2.32 0 0 1-.353 1.308 2.577 2.577 0 0 1-1.205.91 2.773 2.773 0 0 1 1.48.91c.398.471.609 1.072.591 1.69l-.036 1.365Zm-3.673-7.165a.929.929 0 0 0-.295-.722 1.444 1.444 0 0 0-.967-.267h-1.963v3.214h1.963c.34.027.678-.076.945-.289a.921.921 0 0 0 .317-.723v-1.213Zm.505 5.866a1.109 1.109 0 0 0-.346-.89 1.486 1.486 0 0 0-.982-.294h-2.402v3.264h1.963a2.94 2.94 0 0 0 1.248-.232.96.96 0 0 0 .519-.997V29.1Zm15.73.563a4.258 4.258 0 0 1-.296 1.573 3.79 3.79 0 0 1-.931 1.388 4.857 4.857 0 0 1-1.71.983 8.829 8.829 0 0 1-5.05 0 4.815 4.815 0 0 1-1.653-.983 3.914 3.914 0 0 1-.938-1.387 4.392 4.392 0 0 1-.295-1.574v-5.88a4.43 4.43 0 0 1 .295-1.574c.207-.523.527-.995.938-1.38a4.617 4.617 0 0 1 1.688-.982 8.65 8.65 0 0 1 5.051 0c.624.205 1.197.54 1.682.982.41.383.728.855.93 1.38.197.5.297 1.036.296 1.575l-.007 5.879Zm-3.168-5.598a1.63 1.63 0 0 0-.534-1.3 3.381 3.381 0 0 0-3.463 0 1.648 1.648 0 0 0-.418.589 1.648 1.648 0 0 0-.123.71v5.324a1.65 1.65 0 0 0 .541 1.3 3.43 3.43 0 0 0 3.463 0 1.632 1.632 0 0 0 .534-1.3v-5.323Zm10.918-1.553v11.244h-3.169V22.514h-3.78v-2.817h10.693v2.817h-3.744Zm-81.861-2.824h4.517l3.961 14.07h-3.247l-2.972-11.196-2.973 11.195h-3.255l3.969-14.069Zm-4.755 10.198a6.698 6.698 0 0 1-.209 1.8c-.129.497-.4.945-.78 1.292-.453.38-.993.643-1.572.766-.848.186-1.715.27-2.583.252-.816 0-1.631-.08-2.432-.239a9.05 9.05 0 0 1-1.566-.41V30.71c.649.195 1.299.354 1.962.484.69.124 1.391.184 2.093.18.33.008.662-.012.99-.057a1.28 1.28 0 0 0 .59-.24.917.917 0 0 0 .281-.461c.058-.236.085-.479.08-.722a5.29 5.29 0 0 0-.043-.723.719.719 0 0 0-.275-.469 2.148 2.148 0 0 0-.72-.332 15.04 15.04 0 0 0-1.343-.332 13.214 13.214 0 0 1-2.035-.579 2.886 2.886 0 0 1-1.183-.773 2.399 2.399 0 0 1-.549-1.198 10.109 10.109 0 0 1-.137-1.857 6.296 6.296 0 0 1 .217-1.841 2.43 2.43 0 0 1 .722-1.2 3.486 3.486 0 0 1 1.493-.721 10.814 10.814 0 0 1 2.396-.224c.613 0 1.284.036 1.999.108.758.074 1.512.192 2.258.354v2.673a48.012 48.012 0 0 0-2.396-.347 16.527 16.527 0 0 0-1.825-.094 5.651 5.651 0 0 0-.86.05 1.12 1.12 0 0 0-.533.203.723.723 0 0 0-.26.39 2.215 2.215 0 0 0-.072.629c-.014.26-.014.52 0 .78a.723.723 0 0 0 .267.462c.218.149.463.254.722.31.31.094.721.202 1.292.325.759.162 1.502.389 2.222.678a3.27 3.27 0 0 1 1.233.853c.278.33.449.734.491 1.163.056.566.077 1.136.065 1.704Zm100.678 0a7.042 7.042 0 0 1-.216 1.8 2.723 2.723 0 0 1-.787 1.292 3.52 3.52 0 0 1-1.572.766c-.849.187-1.715.27-2.583.252-.814 0-1.627-.08-2.425-.239a9.376 9.376 0 0 1-1.572-.44v-2.635c.642.194 1.298.354 1.954.483.692.123 1.392.184 2.093.18.33.007.661-.011.988-.058a1.23 1.23 0 0 0 .592-.238.88.88 0 0 0 .289-.462c.054-.237.079-.48.072-.723a5.276 5.276 0 0 0-.043-.721.72.72 0 0 0-.275-.47 2.081 2.081 0 0 0-.721-.332c-.442-.131-.89-.242-1.342-.332a13.208 13.208 0 0 1-2.035-.578 2.96 2.96 0 0 1-1.183-.773 2.475 2.475 0 0 1-.549-1.2 10.115 10.115 0 0 1-.136-1.855 6.522 6.522 0 0 1 .209-1.77 2.44 2.44 0 0 1 .764-1.199c.429-.358.94-.606 1.487-.722a10.862 10.862 0 0 1 2.395-.224c.621 0 1.284.037 2.006.108.759.074 1.514.193 2.259.354v2.673a49.276 49.276 0 0 0-2.396-.347 16.517 16.517 0 0 0-1.826-.094 5.677 5.677 0 0 0-.865.05c-.19.021-.372.091-.527.203a.717.717 0 0 0-.266.39 2.226 2.226 0 0 0-.073.629c-.004.26.01.521.043.78a.726.726 0 0 0 .26.462 2.1 2.1 0 0 0 .721.31c.303.094.722.202 1.285.325.761.162 1.507.39 2.23.678.451.18.858.456 1.19.81.273.331.441.736.483 1.163.059.566.083 1.136.072 1.704ZM88.686 24.435a.921.921 0 0 1-.318.721c-.272.193-.606.28-.938.246h-1.962v-3.186h1.962c.344-.03.687.062.968.26a.933.933 0 0 1 .295.724l-.007 1.235Zm1.573 1.978a2.607 2.607 0 0 0 1.205-.91c.246-.39.368-.845.354-1.307V22.75a2.892 2.892 0 0 0-.902-2.253c-.607-.55-1.638-.824-3.103-.824h-5.548v14.084h3.197v-5.85h2.373c.352-.02.7.085.982.297a1.119 1.119 0 0 1 .346.888v4.665h3.168v-4.744a2.537 2.537 0 0 0-.592-1.691 2.771 2.771 0 0 0-1.443-.91m51.561-1.971a.893.893 0 0 1-.317.722c-.27.207-.606.307-.945.281h-1.935v-3.22h1.956a1.45 1.45 0 0 1 .932.288.919.919 0 0 1 .294.723l.015 1.206Zm1.574 1.979a2.589 2.589 0 0 0 1.204-.91c.247-.391.373-.846.361-1.308v-1.444a2.881 2.881 0 0 0-.909-2.262c-.606-.548-1.638-.823-3.103-.823h-5.549v14.084h3.225v-5.85h2.367a1.45 1.45 0 0 1 .982.297 1.112 1.112 0 0 1 .346.888v4.665h3.168v-4.744a2.505 2.505 0 0 0-.592-1.691 2.77 2.77 0 0 0-1.442-.91"></path>
    <path fill="#61A4D7" d="m18.616 19.458-4.936-4.89c-.35-.37-.655-.78-.909-1.22a3.615 3.615 0 0 1 0-2.89 8.805 8.805 0 0 1 1.298-1.9c.583-.596.91-1.397.91-2.231a1.446 1.446 0 0 0-.642-1.149 2.768 2.768 0 0 0-1.226-.26 2.208 2.208 0 0 0-1.494.413 1.4 1.4 0 0 0-.462 1.119l-.05 4.607v3.265c0 .456-.081.909-.238 1.337a3.165 3.165 0 0 1-.722 1.17 3.84 3.84 0 0 1-1.364.83 6.387 6.387 0 0 1-2.121.311 6.434 6.434 0 0 1-2.114-.31 3.772 3.772 0 0 1-1.379-.831 3.091 3.091 0 0 1-.72-1.17 4.07 4.07 0 0 1-.232-1.336V0h-.649A1.572 1.572 0 0 0 0 1.567V18.02a1.568 1.568 0 0 0 1.565 1.56h16.438c.21 0 .419-.04.613-.122Z"></path>
    <path fill="#61A4D7" d="m18.616 19.458-4.936-4.89c-.35-.37-.655-.78-.909-1.22a3.615 3.615 0 0 1 0-2.89 8.805 8.805 0 0 1 1.298-1.9c.583-.596.91-1.397.91-2.231a1.446 1.446 0 0 0-.642-1.149 2.768 2.768 0 0 0-1.226-.26 2.208 2.208 0 0 0-1.494.413 1.4 1.4 0 0 0-.462 1.119l-.05 4.607v3.265c0 .456-.081.909-.238 1.337a3.165 3.165 0 0 1-.722 1.17 3.84 3.84 0 0 1-1.364.83 6.387 6.387 0 0 1-2.121.311 6.434 6.434 0 0 1-2.114-.31 3.772 3.772 0 0 1-1.379-.831 3.091 3.091 0 0 1-.72-1.17 4.07 4.07 0 0 1-.232-1.336V0h-.649A1.572 1.572 0 0 0 0 1.567V18.02a1.568 1.568 0 0 0 1.565 1.56h16.438c.21 0 .419-.04.613-.122Z"></path>
    <path fill="#61A4D7" d="M18.003 0H4.826v14.07a1.525 1.525 0 0 0 .39 1.126c.4.311.905.454 1.408.398a1.937 1.937 0 0 0 1.443-.398 1.531 1.531 0 0 0 .396-1.127V6.22a3.68 3.68 0 0 1 .253-1.357 3.19 3.19 0 0 1 .787-1.2 4.04 4.04 0 0 1 1.443-.853 6.596 6.596 0 0 1 2.164-.317 6.582 6.582 0 0 1 2.165.317 4.07 4.07 0 0 1 1.443.853c.357.33.634.737.809 1.192.05.136.091.276.122.419.037.12.062.242.072.367.004.06.004.121 0 .181a.44.44 0 0 1 0 .102.879.879 0 0 1 0 .137v.173a4.44 4.44 0 0 1-.836 2.499c-.253.405-1.444 2.03-1.444 2.03a1.337 1.337 0 0 0 0 1.848l4.164 4.038V1.568A1.575 1.575 0 0 0 18.002 0Z"></path>
    <path fill="#fff" d="M2.382 15.659c.15.439.396.84.72 1.17.395.373.866.656 1.379.83.682.22 1.396.326 2.114.311a6.39 6.39 0 0 0 2.186-.31c.513-.177.983-.46 1.379-.831.323-.333.57-.732.722-1.17.157-.428.236-.88.237-1.336V11.06l.05-4.61a1.403 1.403 0 0 1 .463-1.118c.428-.31.952-.456 1.479-.412.42-.018.84.062 1.227.23a1.445 1.445 0 0 1 .664 1.178c0 .835-.327 1.635-.91 2.232a8.768 8.768 0 0 0-1.298 1.9 3.614 3.614 0 0 0 0 2.889c.246.44.545.85.887 1.22l4.935 4.89a1.573 1.573 0 0 0 .953-1.445V16.64l-4.033-4.038a1.338 1.338 0 0 1 0-1.848s1.168-1.626 1.442-2.03c.526-.729.817-1.6.837-2.499v-.174a.879.879 0 0 0 0-.137.443.443 0 0 0 0-.1c.003-.06.003-.121 0-.182a1.792 1.792 0 0 0-.072-.367 3.053 3.053 0 0 0-.123-.42 3.185 3.185 0 0 0-.902-1.184 4.07 4.07 0 0 0-1.443-.853 6.582 6.582 0 0 0-2.164-.317 6.596 6.596 0 0 0-2.165.317 4.04 4.04 0 0 0-1.443.853c-.357.33-.634.738-.808 1.192-.17.432-.255.893-.253 1.357v7.852a1.533 1.533 0 0 1-.382 1.134 1.938 1.938 0 0 1-1.443.398 1.94 1.94 0 0 1-1.407-.398 1.525 1.525 0 0 1-.39-1.127V0H2.15v14.323c.002.454.08.907.232 1.335Z"></path>
</svg>