<?xml version="1.0" encoding="UTF-8"?><svg xmlns="http://www.w3.org/2000/svg" xmlns:xlink="http://www.w3.org/1999/xlink" fill-opacity="1" color-rendering="auto" color-interpolation="auto" text-rendering="auto" stroke="black" stroke-linecap="square" width="852" stroke-miterlimit="10" shape-rendering="auto" stroke-opacity="1" fill="black" stroke-dasharray="none" font-weight="normal" stroke-width="1" height="165" font-family="'Dialog'" font-style="normal" stroke-linejoin="miter" font-size="12px" stroke-dashoffset="0" image-rendering="auto">
  <!--Generated by ySVG 2.5-->
  <defs id="genericDefs"/>
  <g>
    <defs id="defs1">
      <clipPath clipPathUnits="userSpaceOnUse" id="clipPath1">
        <path d="M0 0 L852 0 L852 165 L0 165 L0 0 Z"/>
      </clipPath>
      <clipPath clipPathUnits="userSpaceOnUse" id="clipPath2">
        <path d="M-15 -15 L837 -15 L837 150 L-15 150 L-15 -15 Z"/>
      </clipPath>
      <clipPath clipPathUnits="userSpaceOnUse" id="clipPath3">
        <path d="M301 0 L301 28 L401 28 L401 0 Z"/>
      </clipPath>
      <clipPath clipPathUnits="userSpaceOnUse" id="clipPath4">
        <path d="M0 59 L0 87 L222 87 L222 59 Z"/>
      </clipPath>
      <clipPath clipPathUnits="userSpaceOnUse" id="clipPath5">
        <path d="M252 59 L252 87 L450 87 L450 59 Z"/>
      </clipPath>
      <clipPath clipPathUnits="userSpaceOnUse" id="clipPath6">
        <path d="M0 107 L0 135 L223 135 L223 107 Z"/>
      </clipPath>
      <clipPath clipPathUnits="userSpaceOnUse" id="clipPath7">
        <path d="M480 59 L480 87 L656 87 L656 59 Z"/>
      </clipPath>
      <clipPath clipPathUnits="userSpaceOnUse" id="clipPath8">
        <path d="M686 0 L686 28 L821 28 L821 0 Z"/>
      </clipPath>
    </defs>
    <g fill="white" text-rendering="geometricPrecision" shape-rendering="geometricPrecision" transform="translate(15,15)" stroke="white">
      <rect x="-15" width="852" height="165" y="-15" clip-path="url(#clipPath2)" stroke="none"/>
    </g>
    <g fill="rgb(255,204,0)" text-rendering="geometricPrecision" shape-rendering="geometricPrecision" transform="matrix(1,0,0,1,15,15)" stroke="rgb(255,204,0)">
      <rect x="302" width="98" height="26" y="1" clip-path="url(#clipPath2)" stroke="none"/>
      <rect x="301" y="0" clip-path="url(#clipPath2)" fill="yellow" width="1" height="28" stroke="none"/>
      <rect x="302" y="0" clip-path="url(#clipPath2)" fill="yellow" width="98" height="1" stroke="none"/>
      <rect x="302" y="27" clip-path="url(#clipPath2)" fill="rgb(178,142,0)" width="99" height="1" stroke="none"/>
      <rect x="400" y="0" clip-path="url(#clipPath2)" fill="rgb(178,142,0)" width="1" height="27" stroke="none"/>
    </g>
    <g font-size="13px" stroke-linecap="butt" transform="matrix(1,0,0,1,15,15)" text-rendering="geometricPrecision" font-family="sans-serif" shape-rendering="geometricPrecision" font-weight="bold" stroke-miterlimit="1.45">
      <text x="320.3362" xml:space="preserve" y="17.0669" clip-path="url(#clipPath3)" stroke="none">UrDriver</text>
    </g>
    <g fill="rgb(255,204,0)" text-rendering="geometricPrecision" shape-rendering="geometricPrecision" transform="matrix(1,0,0,1,15,15)" stroke="rgb(255,204,0)">
      <rect x="1" width="220" height="26" y="60" clip-path="url(#clipPath2)" stroke="none"/>
      <rect x="0" y="59" clip-path="url(#clipPath2)" fill="yellow" width="1" height="28" stroke="none"/>
      <rect x="1" y="59" clip-path="url(#clipPath2)" fill="yellow" width="220" height="1" stroke="none"/>
      <rect x="1" y="86" clip-path="url(#clipPath2)" fill="rgb(178,142,0)" width="221" height="1" stroke="none"/>
      <rect x="221" y="59" clip-path="url(#clipPath2)" fill="rgb(178,142,0)" width="1" height="27" stroke="none"/>
    </g>
    <g font-size="13px" stroke-linecap="butt" transform="matrix(1,0,0,1,15,15)" text-rendering="geometricPrecision" font-family="sans-serif" shape-rendering="geometricPrecision" font-weight="bold" stroke-miterlimit="1.45">
      <text x="13.981" xml:space="preserve" y="76.0669" clip-path="url(#clipPath4)" stroke="none">rtde_interface::RTDEClient</text>
    </g>
    <g fill="rgb(255,204,0)" text-rendering="geometricPrecision" shape-rendering="geometricPrecision" transform="matrix(1,0,0,1,15,15)" stroke="rgb(255,204,0)">
      <rect x="253" width="196" height="26" y="60" clip-path="url(#clipPath2)" stroke="none"/>
      <rect x="252" y="59" clip-path="url(#clipPath2)" fill="yellow" width="1" height="28" stroke="none"/>
      <rect x="253" y="59" clip-path="url(#clipPath2)" fill="yellow" width="196" height="1" stroke="none"/>
      <rect x="253" y="86" clip-path="url(#clipPath2)" fill="rgb(178,142,0)" width="197" height="1" stroke="none"/>
      <rect x="449" y="59" clip-path="url(#clipPath2)" fill="rgb(178,142,0)" width="1" height="27" stroke="none"/>
    </g>
    <g font-size="13px" stroke-linecap="butt" transform="matrix(1,0,0,1,15,15)" text-rendering="geometricPrecision" font-family="sans-serif" shape-rendering="geometricPrecision" font-weight="bold" stroke-miterlimit="1.45">
      <text x="261.6521" xml:space="preserve" y="76.0669" clip-path="url(#clipPath5)" stroke="none">comm::ReverseInterface</text>
    </g>
    <g fill="rgb(255,204,0)" text-rendering="geometricPrecision" shape-rendering="geometricPrecision" transform="matrix(1,0,0,1,15,15)" stroke="rgb(255,204,0)">
      <rect x="1" width="221" height="26" y="108" clip-path="url(#clipPath2)" stroke="none"/>
      <rect x="0" y="107" clip-path="url(#clipPath2)" fill="yellow" width="1" height="28" stroke="none"/>
      <rect x="1" y="107" clip-path="url(#clipPath2)" fill="yellow" width="221" height="1" stroke="none"/>
      <rect x="1" y="134" clip-path="url(#clipPath2)" fill="rgb(178,142,0)" width="222" height="1" stroke="none"/>
      <rect x="222" y="107" clip-path="url(#clipPath2)" fill="rgb(178,142,0)" width="1" height="27" stroke="none"/>
    </g>
    <g font-size="13px" stroke-linecap="butt" transform="matrix(1,0,0,1,15,15)" text-rendering="geometricPrecision" font-family="sans-serif" shape-rendering="geometricPrecision" font-weight="bold" stroke-miterlimit="1.45">
      <text x="12.0259" xml:space="preserve" y="124.0669" clip-path="url(#clipPath6)" stroke="none">rtde_interface::RTDEWriter</text>
    </g>
    <g fill="rgb(255,204,0)" text-rendering="geometricPrecision" shape-rendering="geometricPrecision" transform="matrix(1,0,0,1,15,15)" stroke="rgb(255,204,0)">
      <rect x="481" width="174" height="26" y="60" clip-path="url(#clipPath2)" stroke="none"/>
      <rect x="480" y="59" clip-path="url(#clipPath2)" fill="yellow" width="1" height="28" stroke="none"/>
      <rect x="481" y="59" clip-path="url(#clipPath2)" fill="yellow" width="174" height="1" stroke="none"/>
      <rect x="481" y="86" clip-path="url(#clipPath2)" fill="rgb(178,142,0)" width="175" height="1" stroke="none"/>
      <rect x="655" y="59" clip-path="url(#clipPath2)" fill="rgb(178,142,0)" width="1" height="27" stroke="none"/>
    </g>
    <g font-size="13px" stroke-linecap="butt" transform="matrix(1,0,0,1,15,15)" text-rendering="geometricPrecision" font-family="sans-serif" shape-rendering="geometricPrecision" font-weight="bold" stroke-miterlimit="1.45">
      <text x="493.7246" xml:space="preserve" y="76.0669" clip-path="url(#clipPath7)" stroke="none">comm::ScriptSender</text>
    </g>
    <g fill="rgb(255,204,0)" text-rendering="geometricPrecision" shape-rendering="geometricPrecision" transform="matrix(1,0,0,1,15,15)" stroke="rgb(255,204,0)">
      <rect x="687" width="133" height="26" y="1" clip-path="url(#clipPath2)" stroke="none"/>
      <rect x="686" y="0" clip-path="url(#clipPath2)" fill="yellow" width="1" height="28" stroke="none"/>
      <rect x="687" y="0" clip-path="url(#clipPath2)" fill="yellow" width="133" height="1" stroke="none"/>
      <rect x="687" y="27" clip-path="url(#clipPath2)" fill="rgb(178,142,0)" width="134" height="1" stroke="none"/>
      <rect x="820" y="0" clip-path="url(#clipPath2)" fill="rgb(178,142,0)" width="1" height="27" stroke="none"/>
    </g>
    <g font-size="13px" stroke-linecap="butt" transform="matrix(1,0,0,1,15,15)" text-rendering="geometricPrecision" font-family="sans-serif" shape-rendering="geometricPrecision" font-weight="bold" stroke-miterlimit="1.45">
      <text x="692.9895" xml:space="preserve" y="17.0669" clip-path="url(#clipPath8)" stroke="none">DashboardClient</text>
      <path fill="none" d="M318.1667 35.0303 L318.1667 43.5 L111.5 43.5 L111.5 58.9697" clip-path="url(#clipPath2)"/>
      <path d="M318.1667 28.0303 L323.1667 35.0303 L318.1667 42.0303 L313.1667 35.0303 Z" stroke="none" clip-path="url(#clipPath2)"/>
      <path fill="none" d="M351.5 35.0303 L351.5 58.9698" clip-path="url(#clipPath2)"/>
      <path d="M351.5 28.0303 L356.5 35.0303 L351.5 42.0303 L346.5 35.0303 Z" stroke="none" clip-path="url(#clipPath2)"/>
      <path fill="none" d="M111.5 94.0391 L111.5 106.961" clip-path="url(#clipPath2)"/>
      <path d="M111.5 87.0391 L116.5 94.0391 L111.5 101.0391 L106.5 94.0391 Z" stroke="none" clip-path="url(#clipPath2)"/>
      <path fill="none" d="M384.8333 35.0303 L384.8333 43.5 L568.5 43.5 L568.5 58.9697" clip-path="url(#clipPath2)"/>
      <path d="M384.8333 28.0303 L389.8333 35.0303 L384.8333 42.0303 L379.8333 35.0303 Z" stroke="none" clip-path="url(#clipPath2)"/>
    </g>
  </g>
</svg>
