<?xml version="1.0" encoding="UTF-8"?><svg xmlns="http://www.w3.org/2000/svg" xmlns:xlink="http://www.w3.org/1999/xlink" fill-opacity="1" color-rendering="auto" color-interpolation="auto" text-rendering="auto" stroke="black" stroke-linecap="square" width="687" stroke-miterlimit="10" shape-rendering="auto" stroke-opacity="1" fill="black" stroke-dasharray="none" font-weight="normal" stroke-width="1" height="165" font-family="'Dialog'" font-style="normal" stroke-linejoin="miter" font-size="12px" stroke-dashoffset="0" image-rendering="auto">
  <!--Generated by ySVG 2.5-->
  <defs id="genericDefs"/>
  <g>
    <defs id="defs1">
      <clipPath clipPathUnits="userSpaceOnUse" id="clipPath1">
        <path d="M0 0 L687 0 L687 165 L0 165 L0 0 Z"/>
      </clipPath>
      <clipPath clipPathUnits="userSpaceOnUse" id="clipPath2">
        <path d="M5 -150 L692 -150 L692 15 L5 15 L5 -150 Z"/>
      </clipPath>
      <clipPath clipPathUnits="userSpaceOnUse" id="clipPath3">
        <path d="M321 -135 L321 -107 L421 -107 L421 -135 Z"/>
      </clipPath>
      <clipPath clipPathUnits="userSpaceOnUse" id="clipPath4">
        <path d="M20 -76 L20 -48 L242 -48 L242 -76 Z"/>
      </clipPath>
      <clipPath clipPathUnits="userSpaceOnUse" id="clipPath5">
        <path d="M272 -76 L272 -48 L470 -48 L470 -76 Z"/>
      </clipPath>
      <clipPath clipPathUnits="userSpaceOnUse" id="clipPath6">
        <path d="M20 -28 L20 0 L243 0 L243 -28 Z"/>
      </clipPath>
      <clipPath clipPathUnits="userSpaceOnUse" id="clipPath7">
        <path d="M500 -76 L500 -48 L676 -48 L676 -76 Z"/>
      </clipPath>
    </defs>
    <g fill="white" text-rendering="geometricPrecision" shape-rendering="geometricPrecision" transform="translate(-5,150)" stroke="white">
      <rect x="5" width="687" height="165" y="-150" clip-path="url(#clipPath2)" stroke="none"/>
    </g>
    <g fill="rgb(255,204,0)" text-rendering="geometricPrecision" shape-rendering="geometricPrecision" transform="matrix(1,0,0,1,-5,150)" stroke="rgb(255,204,0)">
      <rect x="322" width="98" height="26" y="-134" clip-path="url(#clipPath2)" stroke="none"/>
      <rect x="321" y="-135" clip-path="url(#clipPath2)" fill="yellow" width="1" height="28" stroke="none"/>
      <rect x="322" y="-135" clip-path="url(#clipPath2)" fill="yellow" width="98" height="1" stroke="none"/>
      <rect x="322" y="-108" clip-path="url(#clipPath2)" fill="rgb(178,142,0)" width="99" height="1" stroke="none"/>
      <rect x="420" y="-135" clip-path="url(#clipPath2)" fill="rgb(178,142,0)" width="1" height="27" stroke="none"/>
    </g>
    <g font-size="13px" stroke-linecap="butt" transform="matrix(1,0,0,1,-5,150)" text-rendering="geometricPrecision" font-family="sans-serif" shape-rendering="geometricPrecision" font-weight="bold" stroke-miterlimit="1.45">
      <text x="340.3362" xml:space="preserve" y="-117.9331" clip-path="url(#clipPath3)" stroke="none">UrDriver</text>
    </g>
    <g fill="rgb(255,204,0)" text-rendering="geometricPrecision" shape-rendering="geometricPrecision" transform="matrix(1,0,0,1,-5,150)" stroke="rgb(255,204,0)">
      <rect x="21" width="220" height="26" y="-75" clip-path="url(#clipPath2)" stroke="none"/>
      <rect x="20" y="-76" clip-path="url(#clipPath2)" fill="yellow" width="1" height="28" stroke="none"/>
      <rect x="21" y="-76" clip-path="url(#clipPath2)" fill="yellow" width="220" height="1" stroke="none"/>
      <rect x="21" y="-49" clip-path="url(#clipPath2)" fill="rgb(178,142,0)" width="221" height="1" stroke="none"/>
      <rect x="241" y="-76" clip-path="url(#clipPath2)" fill="rgb(178,142,0)" width="1" height="27" stroke="none"/>
    </g>
    <g font-size="13px" stroke-linecap="butt" transform="matrix(1,0,0,1,-5,150)" text-rendering="geometricPrecision" font-family="sans-serif" shape-rendering="geometricPrecision" font-weight="bold" stroke-miterlimit="1.45">
      <text x="33.981" xml:space="preserve" y="-58.9331" clip-path="url(#clipPath4)" stroke="none">rtde_interface::RTDEClient</text>
    </g>
    <g fill="rgb(255,204,0)" text-rendering="geometricPrecision" shape-rendering="geometricPrecision" transform="matrix(1,0,0,1,-5,150)" stroke="rgb(255,204,0)">
      <rect x="273" width="196" height="26" y="-75" clip-path="url(#clipPath2)" stroke="none"/>
      <rect x="272" y="-76" clip-path="url(#clipPath2)" fill="yellow" width="1" height="28" stroke="none"/>
      <rect x="273" y="-76" clip-path="url(#clipPath2)" fill="yellow" width="196" height="1" stroke="none"/>
      <rect x="273" y="-49" clip-path="url(#clipPath2)" fill="rgb(178,142,0)" width="197" height="1" stroke="none"/>
      <rect x="469" y="-76" clip-path="url(#clipPath2)" fill="rgb(178,142,0)" width="1" height="27" stroke="none"/>
    </g>
    <g font-size="13px" stroke-linecap="butt" transform="matrix(1,0,0,1,-5,150)" text-rendering="geometricPrecision" font-family="sans-serif" shape-rendering="geometricPrecision" font-weight="bold" stroke-miterlimit="1.45">
      <text x="281.6521" xml:space="preserve" y="-58.9331" clip-path="url(#clipPath5)" stroke="none">comm::ReverseInterface</text>
    </g>
    <g fill="rgb(255,204,0)" text-rendering="geometricPrecision" shape-rendering="geometricPrecision" transform="matrix(1,0,0,1,-5,150)" stroke="rgb(255,204,0)">
      <rect x="21" width="221" height="26" y="-27" clip-path="url(#clipPath2)" stroke="none"/>
      <rect x="20" y="-28" clip-path="url(#clipPath2)" fill="yellow" width="1" height="28" stroke="none"/>
      <rect x="21" y="-28" clip-path="url(#clipPath2)" fill="yellow" width="221" height="1" stroke="none"/>
      <rect x="21" y="-1" clip-path="url(#clipPath2)" fill="rgb(178,142,0)" width="222" height="1" stroke="none"/>
      <rect x="242" y="-28" clip-path="url(#clipPath2)" fill="rgb(178,142,0)" width="1" height="27" stroke="none"/>
    </g>
    <g font-size="13px" stroke-linecap="butt" transform="matrix(1,0,0,1,-5,150)" text-rendering="geometricPrecision" font-family="sans-serif" shape-rendering="geometricPrecision" font-weight="bold" stroke-miterlimit="1.45">
      <text x="32.0259" xml:space="preserve" y="-10.9331" clip-path="url(#clipPath6)" stroke="none">rtde_interface::RTDEWriter</text>
    </g>
    <g fill="rgb(255,204,0)" text-rendering="geometricPrecision" shape-rendering="geometricPrecision" transform="matrix(1,0,0,1,-5,150)" stroke="rgb(255,204,0)">
      <rect x="501" width="174" height="26" y="-75" clip-path="url(#clipPath2)" stroke="none"/>
      <rect x="500" y="-76" clip-path="url(#clipPath2)" fill="yellow" width="1" height="28" stroke="none"/>
      <rect x="501" y="-76" clip-path="url(#clipPath2)" fill="yellow" width="174" height="1" stroke="none"/>
      <rect x="501" y="-49" clip-path="url(#clipPath2)" fill="rgb(178,142,0)" width="175" height="1" stroke="none"/>
      <rect x="675" y="-76" clip-path="url(#clipPath2)" fill="rgb(178,142,0)" width="1" height="27" stroke="none"/>
    </g>
    <g font-size="13px" stroke-linecap="butt" transform="matrix(1,0,0,1,-5,150)" text-rendering="geometricPrecision" font-family="sans-serif" shape-rendering="geometricPrecision" font-weight="bold" stroke-miterlimit="1.45">
      <text x="513.7246" xml:space="preserve" y="-58.9331" clip-path="url(#clipPath7)" stroke="none">comm::ScriptSender</text>
      <path fill="none" d="M338.1667 -99.9697 L338.1667 -91.5 L131.5 -91.5 L131.5 -76.0303" clip-path="url(#clipPath2)"/>
      <path d="M338.1667 -106.9697 L343.1667 -99.9697 L338.1667 -92.9697 L333.1667 -99.9697 Z" stroke="none" clip-path="url(#clipPath2)"/>
      <path fill="none" d="M371.5 -99.9697 L371.5 -76.0302" clip-path="url(#clipPath2)"/>
      <path d="M371.5 -106.9697 L376.5 -99.9697 L371.5 -92.9697 L366.5 -99.9697 Z" stroke="none" clip-path="url(#clipPath2)"/>
      <path fill="none" d="M131.5 -40.9609 L131.5 -28.039" clip-path="url(#clipPath2)"/>
      <path d="M131.5 -47.9609 L136.5 -40.9609 L131.5 -33.9609 L126.5 -40.9609 Z" stroke="none" clip-path="url(#clipPath2)"/>
      <path fill="none" d="M404.8333 -99.9697 L404.8333 -91.5 L588.5 -91.5 L588.5 -76.0303" clip-path="url(#clipPath2)"/>
      <path d="M404.8333 -106.9697 L409.8333 -99.9697 L404.8333 -92.9697 L399.8333 -99.9697 Z" stroke="none" clip-path="url(#clipPath2)"/>
    </g>
  </g>
</svg>
